<svg xmlns="http://www.w3.org/2000/svg" viewBox="0 0 90 47"><use href="#svg1197675900_3688"/><defs><svg xmlns="http://www.w3.org/2000/svg" width="90" height="47" viewBox="0 0 90 47" fill="none" id="svg1197675900_3688">
<path d="M88.3447 27.3008L90 20.25H78.4562L78.8175 18.4952L80.1036 12.5115L80.4173 10.8911C80.6435 9.76076 81.0603 8.84384 81.6637 8.14825C82.2671 7.45266 83.069 7.10091 84.0654 7.10091C85.2047 7.10091 86.3757 7.36966 87.5825 7.91112L89.6586 2.05787C87.8365 1.20418 85.7803 0.777344 83.4898 0.777344C80.4093 0.777344 78.0156 1.54012 76.3087 3.06568C74.6017 4.59125 73.391 7.00606 72.6725 10.318L70.9139 18.4952L70.5527 20.25H60.1561L60.5174 18.4952L61.8313 12.5115L62.1449 10.8911C62.3553 9.76076 62.7642 8.84384 63.3795 8.14825C63.9908 7.45266 64.7967 7.10091 65.7931 7.10091C66.9125 7.10091 68.0756 7.36966 69.2863 7.91112L71.3863 2.05787C69.5642 1.20418 67.5079 0.777344 65.2174 0.777344C62.137 0.777344 59.7433 1.54012 58.0363 3.06568C56.3294 4.59125 55.1186 7.00606 54.4001 10.318L53.9278 12.5115L52.6138 18.4952L52.2565 20.25H45.917L48.0884 10.0967H41.9989L40.5024 13.8355H40.292C39.6092 12.4404 38.6525 11.3772 37.418 10.6461C36.1834 9.9149 34.7186 9.54734 33.0196 9.54734C30.5703 9.54734 28.3195 10.405 26.2751 12.1202C24.2268 13.8355 22.5754 16.2582 21.3131 19.3884C21.198 19.673 21.0947 19.9615 20.9915 20.25H18.6097L18.971 18.4952L20.2849 12.5115L20.5985 10.8911C20.8089 9.76076 21.2178 8.84384 21.8331 8.14825C22.4444 7.45266 23.2503 7.10091 24.2466 7.10091C25.3661 7.10091 26.5292 7.36966 27.736 7.91112L29.8359 2.05787C28.0139 1.20418 25.9576 0.777344 23.6671 0.777344C20.5866 0.777344 18.1929 1.54012 16.486 3.06568C14.779 4.59125 13.5683 7.00606 12.8498 10.318L12.3774 12.5155L11.0634 18.4991L10.7062 20.2539H3.38215L1.56801 27.3047H9.28502L7.5344 35.9048C7.20095 37.4738 6.63329 38.6041 5.82745 39.3037C5.02161 39.9993 4.08874 40.351 3.01694 40.351C2.07216 40.351 1.06784 40.1692 0 39.8017V46.1252C1.22662 46.56 2.747 46.7773 4.56907 46.7773C10.2735 46.7773 13.7985 43.5444 15.1482 37.0825L17.1648 27.3047H19.5109C19.4632 27.9529 19.4354 28.601 19.4354 29.2571C19.4354 32.6007 20.1738 35.2013 21.6545 37.0588C23.1351 38.9124 25.1597 39.8412 27.732 39.8412C30.9712 39.8412 33.7619 38.4026 36.108 35.5293H36.2112L35.842 39.3195H41.8521L44.4204 27.3047H50.8314L49.0808 35.9048C48.7474 37.4738 48.1797 38.6041 47.3739 39.3037C46.568 39.9993 45.6312 40.351 44.5633 40.351C43.6186 40.351 42.6142 40.1692 41.5464 39.8017V46.1252C42.773 46.56 44.2934 46.7773 46.1155 46.7773C51.8199 46.7773 55.3449 43.5444 56.6946 37.0825L58.7112 27.3047H69.1156L67.3531 35.9048C66.7219 38.865 65.2174 40.3471 62.8396 40.3471C61.8948 40.3471 60.8866 40.1653 59.8227 39.7977V46.1213C61.0493 46.556 62.5697 46.7734 64.3918 46.7734C70.116 46.7734 73.649 43.5405 74.9947 37.0786L77.0113 27.3008H88.3526H88.3447ZM34.3693 15.9262C35.4728 15.9262 36.3581 16.3294 37.0329 17.1396C37.7077 17.9498 38.0452 18.9734 38.0452 20.2105C38.0452 20.2223 38.0452 20.2342 38.0452 20.246H29.3953C29.8558 19.3133 30.3798 18.4952 30.9712 17.8035C32.047 16.5507 33.1784 15.9223 34.3693 15.9223V15.9262ZM34.3137 31.7391C33.1942 32.905 32.0311 33.4899 30.8244 33.4899C29.7407 33.4899 28.9031 33.1066 28.3195 32.3398C27.732 31.5731 27.4382 30.423 27.4382 28.8896C27.4382 28.36 27.4621 27.8304 27.5057 27.3008H36.9098C36.2429 29.1504 35.3776 30.6325 34.3177 31.7391H34.3137Z" fill="#015462"/>
<path d="M85.2086 30.8538C83.5096 30.8538 82.1957 31.3241 81.2588 32.2648C80.322 33.2054 79.8536 34.4622 79.8536 36.0273C79.8536 37.1971 80.2108 38.1062 80.9293 38.7583C81.6478 39.4104 82.6442 39.7384 83.9225 39.7384C85.4786 39.7384 86.7409 39.2681 87.7016 38.3275C88.6622 37.3868 89.1465 36.1577 89.1465 34.644C89.1465 33.4425 88.7893 32.5098 88.0707 31.8458C87.3522 31.1858 86.3995 30.8538 85.2086 30.8538Z" fill="#015462"/>
</svg></defs></svg>